<?xml version="1.0" encoding="utf-8"?>
<!-- Generator: Adobe Illustrator 25.2.1, SVG Export Plug-In . SVG Version: 6.00 Build 0)  -->
<svg version="1.1" xmlns="http://www.w3.org/2000/svg" xmlns:xlink="http://www.w3.org/1999/xlink" x="0px" y="0px"
	 viewBox="0 0 1024 600" style="enable-background:new 0 0 1024 600;" xml:space="preserve">
<style type="text/css">
	.st0{fill-rule:evenodd;clip-rule:evenodd;fill:#FDC309;}
	.st1{fill:#FFD501;}
	.st2{fill-rule:evenodd;clip-rule:evenodd;fill:#FAB611;}
	.st3{fill-rule:evenodd;clip-rule:evenodd;fill:#FCBE0B;}
	.st4{fill-rule:evenodd;clip-rule:evenodd;fill:#133D69;}
	.st5{fill-rule:evenodd;clip-rule:evenodd;fill:#1074A9;}
</style>
<g id="Camada_1">
	<rect x="0" class="st0" width="1024" height="600"/>
</g>
<g id="Camada_2">
	<polygon class="st1" points="1024.2,353.8 0,478.6 0,600 1024,600 	"/>
	<g id="Camada_3">
	</g>
</g>
<g id="Camada_5">
	<polygon class="st2" points="1025,600 1023.1,600 437,0 1023.1,0 	"/>
</g>
<g id="Camada_6">
	<polygon class="st3" points="808.3,380.1 1024.2,353.8 1024,600 1023.1,600 	"/>
</g>
<g id="Camada_4">
	<g>
		<g>
			<path class="st4" d="M93.4,34c-6.9-0.1-13.7,0-20.6,0c4.4,6,9.1,11.5,13.5,17.6c3.6-4.3,6.6-8.7,10.2-13
				C97.9,36.5,95.9,33.9,93.4,34L93.4,34z"/>
			<g>
				<path class="st5" d="M97.5,69.1c-8.2,0-16.4,0-24.6,0c6.3-7.9,17.5-22.8,23.7-30.7c1.1-2.2-0.4-4-2.6-4.4c3.9,0.1,5.2,0,6.7,1.5
					c3.8,4.9,7.5,9.9,11.3,14.8c1.1,1.4,0.6,2.4-0.5,3.7c-3.3,4.3-6.5,8.5-9.8,12.8C100.7,67.9,99.5,68.8,97.5,69.1L97.5,69.1z"/>
			</g>
		</g>
		<path class="st4" d="M135.8,51.6c3.9,0,7.6,1.3,10.5,3.5c-1.1,1.3-2.1,2.7-3.2,4c-1,0.2-0.7,0-1.4-0.1c-1.7-1-3.7-1.6-5.9-1.6
			c-6.5,0-11.8,5.3-11.8,11.8c0,6.5,5.3,11.8,11.8,11.8c2.2,0,4.3-0.7,6.1-1.7c0.9-0.1,0.6-0.1,1.2,0.2c1,1.3,2,2.6,3,3.9
			c-2.9,2.1-6.4,3.3-10.3,3.3c-9.7,0-17.6-7.9-17.6-17.6C118.2,59.5,126.1,51.6,135.8,51.6L135.8,51.6z M284,64.9
			c2.1-1.6,4.9-1,8.3,1c1.2-1.5,2.4-3.1,3.6-4.6c-4.5-2.4-8.1-3.2-11.1-2.6c-6,1-9.3,7.9-5.3,12.7c3.7,4.4,10.7,1.8,11.8,6.7
			c0.3,3.2-5.7,4.7-9.6,0.9c-0.4-0.4-0.8-0.3-1.2-0.2c-1,1.3-2,2.7-3,4c3.3,2.7,6.1,3.7,10.5,3.7c6-0.4,8-3.3,8.7-8.6
			c-0.1-5.7-3.2-7.4-7.5-8.3C283.7,69,282.1,67.3,284,64.9L284,64.9z M238.9,59.1h5.7v27.6h-5.7V59.1L238.9,59.1z M178.9,66.8
			c0,6.6,0,13.1,0,19.7c1.9,0,3.7,0,5.6,0c0-6.4,0-12.9,0-19.3c0.7-2.5,2.8-3,5.4-2.5c1.1-1.6,2.2-3.3,3.3-4.9
			C188.7,58.4,180.2,58.2,178.9,66.8L178.9,66.8z M194,66.8c0,6.6,0,13.1,0,19.7c1.9,0,3.7,0,5.6,0c0-6.4,0-12.9,0-19.3
			c0.7-2.5,2.8-3,5.4-2.5c1.1-1.6,2.2-3.3,3.3-4.9C203.8,58.4,195.3,58.2,194,66.8L194,66.8z M221.6,58.3c7.8,0,14.1,6.3,14.1,14.1
			c0,1-0.1,2-0.3,3c-7.3,0-14.7,0.1-22.1,0.1c1.3,3.4,4.7,5.8,8.6,5.8c1.9,0,3.7-0.6,5.1-1.5c0.4-0.3,0.8-0.1,1.2,0.2
			c0.8,1.2,1.6,2.1,2.4,3.3c-2.5,2.1-5.6,3.3-9.1,3.3c-7.8,0-14.1-6.3-14.1-14.1C207.5,64.6,213.8,58.3,221.6,58.3L221.6,58.3z
			 M221.6,63.5c3.9,0,7.3,2.7,8.4,6.5h-16.8C214.3,66.3,217.6,63.5,221.6,63.5L221.6,63.5z M261.7,58.3c7.8,0,14.1,6.3,14.1,14.1
			c0,7.8-6.3,14.1-14.1,14.1c-7.8,0-14.1-6.3-14.1-14.1C247.6,64.6,253.9,58.3,261.7,58.3L261.7,58.3z M261.7,63.5
			c4.9,0,8.8,4,8.8,8.8c0,4.9-4,8.8-8.8,8.8c-4.9,0-8.8-4-8.8-8.8C252.8,67.5,256.8,63.5,261.7,63.5L261.7,63.5z M161.4,58.3
			c7.8,0,14.1,6.3,14.1,14.1c0,7.8-6.3,14.1-14.1,14.1c-7.8,0-14.1-6.3-14.1-14.1C147.3,64.6,153.6,58.3,161.4,58.3L161.4,58.3z
			 M161.4,63.5c4.9,0,8.8,4,8.8,8.8c0,4.9-4,8.8-8.8,8.8c-4.9,0-8.8-4-8.8-8.8C152.5,67.5,156.5,63.5,161.4,63.5L161.4,63.5z"/>
		<g>
			<path class="st4" d="M61,85.9c6.9,0.1,13.7,0,20.6,0.1c-4.4-6-9.1-11.5-13.5-17.6c-3.6,4.3-6.6,8.7-10.2,13
				C56.6,83.5,58.6,86,61,85.9L61,85.9z"/>
			<g>
				<path class="st5" d="M57,50.8c8.2,0,16.4,0,24.6,0c-6.3,7.9-17.5,22.8-23.7,30.7c-1.1,2.2,0.4,4,2.6,4.4c-3.9-0.1-5.2,0-6.7-1.5
					c-3.8-4.9-7.5-9.9-11.3-14.8c-1.1-1.4-0.6-2.4,0.5-3.7c3.3-4.3,6.5-8.5,9.8-12.8C53.8,52,55.1,51.1,57,50.8L57,50.8z"/>
			</g>
		</g>
	</g>
</g>
</svg>
